<mxfile host="app.diagrams.net" modified="2022-05-29T16:16:09.480Z" agent="5.0 (Windows NT 10.0; Win64; x64) AppleWebKit/537.36 (KHTML, like Gecko) Chrome/101.0.4951.64 Safari/537.36 Edg/101.0.1210.53" etag="3vkcwLVWZBhBxS6Vbp5H" version="18.1.1" type="github">
  <diagram id="W8P-NOtPw1N0tCyrFEZw" name="Page-1">
    <mxGraphModel dx="781" dy="514" grid="1" gridSize="10" guides="1" tooltips="1" connect="1" arrows="1" fold="1" page="1" pageScale="1" pageWidth="827" pageHeight="1169" math="0" shadow="0">
      <root>
        <mxCell id="0" />
        <mxCell id="1" parent="0" />
        <mxCell id="j6OZ_0oorpCZBy5N8ODA-2" value="&lt;font style=&quot;font-size: 24px;&quot;&gt;&lt;b&gt;T1(5,2,1)&lt;/b&gt;&lt;/font&gt;" style="rounded=0;whiteSpace=wrap;html=1;" vertex="1" parent="1">
          <mxGeometry x="110" y="110" width="120" height="60" as="geometry" />
        </mxCell>
        <mxCell id="j6OZ_0oorpCZBy5N8ODA-18" style="edgeStyle=none;rounded=0;orthogonalLoop=1;jettySize=auto;html=1;exitX=0.5;exitY=1;exitDx=0;exitDy=0;entryX=0.5;entryY=0;entryDx=0;entryDy=0;fontSize=24;" edge="1" parent="1" source="j6OZ_0oorpCZBy5N8ODA-9" target="j6OZ_0oorpCZBy5N8ODA-13">
          <mxGeometry relative="1" as="geometry" />
        </mxCell>
        <mxCell id="j6OZ_0oorpCZBy5N8ODA-9" value="&lt;font style=&quot;font-size: 24px;&quot;&gt;&lt;b&gt;T4(6,3,2)&lt;/b&gt;&lt;/font&gt;" style="rounded=0;whiteSpace=wrap;html=1;" vertex="1" parent="1">
          <mxGeometry x="200" y="260" width="120" height="60" as="geometry" />
        </mxCell>
        <mxCell id="j6OZ_0oorpCZBy5N8ODA-16" style="edgeStyle=none;rounded=0;orthogonalLoop=1;jettySize=auto;html=1;exitX=0.5;exitY=1;exitDx=0;exitDy=0;entryX=0.558;entryY=-0.025;entryDx=0;entryDy=0;entryPerimeter=0;fontSize=24;" edge="1" parent="1" source="j6OZ_0oorpCZBy5N8ODA-10" target="j6OZ_0oorpCZBy5N8ODA-9">
          <mxGeometry relative="1" as="geometry" />
        </mxCell>
        <mxCell id="j6OZ_0oorpCZBy5N8ODA-10" value="&lt;font style=&quot;font-size: 24px;&quot;&gt;&lt;b&gt;T2(7,3,2)&lt;/b&gt;&lt;/font&gt;" style="rounded=0;whiteSpace=wrap;html=1;" vertex="1" parent="1">
          <mxGeometry x="320" y="110" width="120" height="60" as="geometry" />
        </mxCell>
        <mxCell id="j6OZ_0oorpCZBy5N8ODA-17" style="edgeStyle=none;rounded=0;orthogonalLoop=1;jettySize=auto;html=1;exitX=0.5;exitY=1;exitDx=0;exitDy=0;entryX=0.5;entryY=0;entryDx=0;entryDy=0;fontSize=24;" edge="1" parent="1" source="j6OZ_0oorpCZBy5N8ODA-11" target="j6OZ_0oorpCZBy5N8ODA-12">
          <mxGeometry relative="1" as="geometry" />
        </mxCell>
        <mxCell id="j6OZ_0oorpCZBy5N8ODA-11" value="&lt;font style=&quot;font-size: 24px;&quot;&gt;&lt;b&gt;T3(4,2,1)&lt;/b&gt;&lt;/font&gt;" style="rounded=0;whiteSpace=wrap;html=1;" vertex="1" parent="1">
          <mxGeometry x="520" y="110" width="120" height="60" as="geometry" />
        </mxCell>
        <mxCell id="j6OZ_0oorpCZBy5N8ODA-19" style="edgeStyle=none;rounded=0;orthogonalLoop=1;jettySize=auto;html=1;exitX=0.5;exitY=1;exitDx=0;exitDy=0;fontSize=24;" edge="1" parent="1" source="j6OZ_0oorpCZBy5N8ODA-12">
          <mxGeometry relative="1" as="geometry">
            <mxPoint x="410" y="420" as="targetPoint" />
          </mxGeometry>
        </mxCell>
        <mxCell id="j6OZ_0oorpCZBy5N8ODA-12" value="&lt;font style=&quot;font-size: 24px;&quot;&gt;&lt;b&gt;T5(3,1,4)&lt;/b&gt;&lt;/font&gt;" style="rounded=0;whiteSpace=wrap;html=1;" vertex="1" parent="1">
          <mxGeometry x="470" y="260" width="120" height="60" as="geometry" />
        </mxCell>
        <mxCell id="j6OZ_0oorpCZBy5N8ODA-13" value="&lt;font style=&quot;font-size: 24px;&quot;&gt;&lt;b&gt;T6(5,2,2)&lt;/b&gt;&lt;/font&gt;" style="rounded=0;whiteSpace=wrap;html=1;" vertex="1" parent="1">
          <mxGeometry x="350" y="420" width="120" height="60" as="geometry" />
        </mxCell>
        <mxCell id="j6OZ_0oorpCZBy5N8ODA-14" value="" style="endArrow=none;html=1;rounded=0;fontSize=24;entryX=0.5;entryY=1;entryDx=0;entryDy=0;exitX=0.5;exitY=0;exitDx=0;exitDy=0;" edge="1" parent="1" source="j6OZ_0oorpCZBy5N8ODA-9" target="j6OZ_0oorpCZBy5N8ODA-2">
          <mxGeometry width="50" height="50" relative="1" as="geometry">
            <mxPoint x="390" y="280" as="sourcePoint" />
            <mxPoint x="440" y="230" as="targetPoint" />
          </mxGeometry>
        </mxCell>
        <mxCell id="j6OZ_0oorpCZBy5N8ODA-20" value="2" style="text;html=1;resizable=0;autosize=1;align=center;verticalAlign=middle;points=[];fillColor=none;strokeColor=none;rounded=0;fontSize=24;" vertex="1" parent="1">
          <mxGeometry x="350" y="200" width="30" height="30" as="geometry" />
        </mxCell>
        <mxCell id="j6OZ_0oorpCZBy5N8ODA-21" value="1" style="text;html=1;resizable=0;autosize=1;align=center;verticalAlign=middle;points=[];fillColor=none;strokeColor=none;rounded=0;fontSize=24;" vertex="1" parent="1">
          <mxGeometry x="500" y="350" width="30" height="30" as="geometry" />
        </mxCell>
        <mxCell id="j6OZ_0oorpCZBy5N8ODA-22" value="3" style="text;html=1;resizable=0;autosize=1;align=center;verticalAlign=middle;points=[];fillColor=none;strokeColor=none;rounded=0;fontSize=24;" vertex="1" parent="1">
          <mxGeometry x="565" y="210" width="30" height="30" as="geometry" />
        </mxCell>
        <mxCell id="j6OZ_0oorpCZBy5N8ODA-23" value="3" style="text;html=1;resizable=0;autosize=1;align=center;verticalAlign=middle;points=[];fillColor=none;strokeColor=none;rounded=0;fontSize=24;" vertex="1" parent="1">
          <mxGeometry x="210" y="190" width="30" height="30" as="geometry" />
        </mxCell>
        <mxCell id="j6OZ_0oorpCZBy5N8ODA-24" value="2" style="text;html=1;resizable=0;autosize=1;align=center;verticalAlign=middle;points=[];fillColor=none;strokeColor=none;rounded=0;fontSize=24;" vertex="1" parent="1">
          <mxGeometry x="330" y="340" width="30" height="30" as="geometry" />
        </mxCell>
      </root>
    </mxGraphModel>
  </diagram>
</mxfile>
